<?xml version="1.0" standalone="no"?>
<!DOCTYPE svg PUBLIC "-//W3C//DTD SVG 20010904//EN"
 "http://www.w3.org/TR/2001/REC-SVG-20010904/DTD/svg10.dtd">
<svg version="1.0" xmlns="http://www.w3.org/2000/svg"
 width="16.000000pt" height="16.000000pt" viewBox="0 0 16.000000 16.000000"
 preserveAspectRatio="xMidYMid meet">

<g transform="translate(0.000000,16.000000) scale(0.100000,-0.100000)"
fill="#000000" stroke="none">
<path d="M41 106 c-24 -37 -26 -52 -10 -61 6 -4 9 0 7 10 -2 10 3 20 10 22 6
3 12 -2 12 -10 0 -8 11 -17 25 -19 28 -6 35 -1 35 23 0 20 -27 19 -42 -2 -8
-11 -9 -11 -4 4 4 12 0 17 -16 17 -17 0 -18 3 -8 15 7 8 16 12 21 9 5 -3 9 2
9 10 0 26 -17 18 -39 -18z"/>
<path d="M64 12 c9 -9 19 -10 39 -3 36 14 34 17 -13 16 -32 0 -37 -2 -26 -13z"/>
</g>
</svg>
